# xmcd CD database file
#
# Track frame offsets:
#	150
#	24341
#	51784
#	78837
#	102440
#	140237
#	161640
#	192055
#	219733
#	236643
#
# Disc length: 3542 seconds
#
# Revision: 0
# Processed by: cddbd v1.5PL3 Copyright (c) Steve Scherf et al.
# Submitted via: CDex 1.51
#
DISCID=860dd40a
DTITLE=Bill Evans - AT THE MONTREUX JAZZ FESTIVAL
DYEAR=1900
DGENRE=Jazz
TTITLE0=One For Helen
TTITLE1=A Sleepin' Bee
TTITLE2=Mother Of Earl
TTITLE3=Nardis
TTITLE4=I Loves You Porgy
TTITLE5=The Touch Of Your Lips
TTITLE6=Embraceable You
TTITLE7=Someday My Prince Will Come
TTITLE8=Walkin' Up
TTITLE9=Quiet Now
EXTD=
EXTT0=
EXTT1=
EXTT2=
EXTT3=
EXTT4=
EXTT5=
EXTT6=
EXTT7=
EXTT8=
EXTT9=
PLAYORDER=
